<svg width="43" height="153" viewBox="0 0 43 153" fill="none" xmlns="http://www.w3.org/2000/svg">
<path d="M28.6124 79.9654C28.1034 82.9514 25.5214 84.8077 21.8731 84.8077C17.268 84.8077 14.293 81.6315 14.293 76.7172C14.293 72.0772 17.2229 69.1931 21.9407 69.1931C25.2765 69.1931 27.7764 70.9251 28.3079 73.6054L28.3707 73.92H34.6397L34.5785 73.4855C33.7602 67.6109 28.7348 63.6646 22.0809 63.6646L21.8779 63.6631C18.0508 63.6631 14.5394 64.986 11.9896 67.3892C9.39477 69.8343 7.99343 73.2039 8.04498 76.8701C7.99343 80.6516 9.42537 84.1096 12.075 86.6056C14.6296 89.0118 18.1346 90.3362 21.9488 90.3362L22.1453 90.3347C28.6413 90.3347 33.8794 86.1202 34.8829 80.0838L34.957 79.6403H28.6671L28.6124 79.9654Z" fill="black" fill-opacity="0.2"/>
<path d="M21.5 97C9.64504 97 0 88.027 0 76.9985C0 65.9715 9.64504 57 21.5 57C33.3566 57 43 65.9715 43 76.9985C43.0016 88.027 33.3566 97 21.5 97ZM21.5 60.8505C11.9274 60.8505 4.13957 68.0945 4.13957 76.9985C4.13957 85.904 11.9291 93.148 21.5016 93.148C31.0742 93.148 38.8636 85.9025 38.8636 76.9985C38.862 68.0945 31.0726 60.8505 21.5 60.8505Z" fill="black" fill-opacity="0.2"/>
</svg>
